<?xml version="1.0" encoding="utf-8"?>
<!-- Generator: Adobe Illustrator 15.1.0, SVG Export Plug-In . SVG Version: 6.00 Build 0)  -->
<!DOCTYPE svg PUBLIC "-//W3C//DTD SVG 1.1//EN" "http://www.w3.org/Graphics/SVG/1.1/DTD/svg11.dtd">
<svg version="1.1" id="Layer_1" xmlns="http://www.w3.org/2000/svg" xmlns:xlink="http://www.w3.org/1999/xlink" x="0px" y="0px"
	 width="510.236px" height="595.28px" viewBox="0 0 510.236 595.28" enable-background="new 0 0 510.236 595.28"
	 xml:space="preserve">
<g>
	<g id="Layer_1_1_">
		<path fill-rule="evenodd" clip-rule="evenodd" fill="#010101" d="M391.757,127.65c2.243,2.883,4.485,5.845,6.727,8.888
			c4.966,7.419,9.208,15.133,12.73,23.14c9.449,20.979,14.172,43.959,14.172,68.941c0,46.334-16.414,85.835-49.242,118.504
			c-31.085,31.453-68.585,48.027-112.499,49.724V268.334l84.155-84.395c0.801-1.121,1.201-2.562,1.201-4.323
			c0-1.441-0.4-2.803-1.201-4.084c-1.282-1.121-2.803-1.681-4.564-1.681c-1.44,0-2.723,0.561-3.843,1.681l-75.748,75.747v-27.705
			c0-1.602-0.719-2.882-2.161-3.843c-1.281-1.281-2.643-1.921-4.083-1.921c-1.602,0-3.043,0.64-4.324,1.921
			c-1.121,0.961-1.681,2.242-1.681,3.843v27.945l-77.669-77.668c-1.281-1.281-2.643-1.922-4.084-1.922
			c-1.921,0-3.363,0.642-4.323,1.922c-1.121,1.121-1.682,2.562-1.682,4.324c0,1.602,0.561,2.962,1.682,4.083l86.076,86.076v128.554
			c-44.022-1.353-81.763-17.939-113.22-49.765c-29.52-29.146-45.801-63.842-48.844-104.091c-0.479-4.805-0.721-9.609-0.721-14.413
			c0-24.982,4.751-47.962,14.253-68.941c3.523-8.007,7.767-15.72,12.731-23.14c2.241-3.043,4.563-6.005,6.966-8.888
			c2.563-3.363,5.284-6.646,8.167-9.849c2.242-2.723,4.724-5.365,7.447-7.927c32.828-32.988,72.41-49.483,118.744-49.483
			c46.653,0,86.395,16.495,119.224,49.483C381.91,115.479,387.115,121.405,391.757,127.65z M465.103,157.516
			c7.365,22.1,11.049,45.8,11.049,71.103c0,60.426-21.404,112.046-64.217,154.856l-0.24,0.239
			c-42.596,42.599-94.108,63.896-154.535,63.896c-60.586,0-112.258-21.379-155.016-64.136
			c-31.762-31.762-51.646-68.38-59.652-109.857c-2.882-14.413-4.324-29.413-4.324-44.999c0-25.303,3.764-49.003,11.291-71.103
			c10.248-30.96,27.811-58.931,52.686-83.914c42.758-42.65,94.43-63.976,155.016-63.976c15.534,0,30.427,1.441,44.68,4.323
			c41.69,8.007,78.309,27.892,109.855,59.652C436.732,98.585,454.533,126.556,465.103,157.516z M461.74,228.619
			c0-23.701-3.443-45.881-10.33-66.539c-9.768-28.878-26.369-55.009-49.803-78.389c-29.467-29.466-63.603-47.962-102.41-55.489
			h-0.239c-13.293-2.775-27.224-4.163-41.798-4.163c-56.582,0-104.812,19.884-144.687,59.652l-0.24,0.24
			c-23.113,23.22-39.475,49.27-49.083,78.148c-7.046,20.658-10.569,42.837-10.569,66.539c0,14.626,1.361,28.665,4.084,42.117
			c7.526,38.593,26.129,72.811,55.809,102.65h-0.24c39.875,39.875,88.185,59.813,144.927,59.813
			c56.423,0,104.571-19.938,144.447-59.813C441.695,333.297,461.74,285.042,461.74,228.619z M431.232,519.034l-2.16,18.496h-6.088
			c-8.166,0-14.65,2.162-19.455,6.486v40.195h-21.38v-68.061h19.699l0.719,13.692h1.442c2.562-4.644,5.525-8.167,8.887-10.569
			c3.363-2.563,7.447-3.844,12.252-3.844c0.854,0,1.922,0.4,3.203,1.201C429.63,517.433,430.591,518.233,431.232,519.034z
			 M368.458,516.151l-2.402,17.775h-19.696v24.021c0,2.723,0.24,4.885,0.721,6.486c1.922,0.64,4.003,0.96,6.244,0.96
			c5.286,0,9.85-1.121,13.693-3.362l3.122,19.057c-2.402,1.441-5.044,2.563-7.926,3.363c-2.884,0.801-6.406,1.201-10.57,1.201
			c-5.765,0-10.89-0.642-15.373-1.922c-3.364-2.402-6.085-4.992-8.168-7.768c-2.241-2.883-3.362-5.685-3.362-8.408v-33.629h-13.292
			l2.642-17.775h10.65v-18.016h21.619v18.016H368.458z M444.203,532.486c3.045-5.604,7.289-10.009,12.732-13.212
			c5.445-3.043,12.01-4.564,19.697-4.564c21.299,0,31.947,11.45,31.947,34.351c0,11.05-3.041,19.857-9.127,26.423
			c-5.924,6.62-15.133,9.929-27.625,9.929c-11.049,0-19.135-2.908-24.26-8.728c-5.125-5.926-7.688-14.333-7.688-25.223
			C439.88,544.417,441.322,538.091,444.203,532.486z M473.99,533.207c-3.682,0-7.205,0.4-10.57,1.201
			c-1.6,4.004-2.4,9.368-2.4,16.094c0,6.406,0.961,10.81,2.883,13.212c1.92,2.402,5.443,3.604,10.568,3.604
			c3.844,0,7.367-0.48,10.568-1.442c1.764-4.004,2.645-9.288,2.645-15.853c0-6.406-1.043-10.81-3.123-13.212
			C482.636,534.408,479.115,533.207,473.99,533.207z M272.293,167.605c2.242-2.402,3.844-5.044,4.804-7.927
			c0.801-2.242,1.201-4.644,1.201-7.206c0-5.605-2.001-10.649-6.005-15.133c-4.324-4.058-9.449-6.086-15.373-6.086
			c-5.925,0-10.81,2.028-14.653,6.086c-4.483,4.483-6.726,9.528-6.726,15.133c0,2.562,0.48,4.964,1.441,7.206
			c0.96,2.883,2.722,5.525,5.284,7.927c3.844,4.164,8.729,6.246,14.653,6.246C262.844,173.851,267.969,171.77,272.293,167.605z
			 M47.776,540.413c7.688-12.331,14.894-27.785,21.619-46.36l21.379,4.324c-4.483,11.369-9.128,21.858-13.932,31.467
			c-4.965,9.448-10.489,18.656-16.575,27.624h-3.362v26.744H35.526v-26.744h-3.604c-5.925-8.968-11.37-18.176-16.334-27.624
			c-4.965-9.608-9.608-20.098-13.933-31.467l21.379-4.324c6.886,19.056,14.092,34.51,21.619,46.36H47.776z M136.014,514.71
			c21.299,0,31.948,11.45,31.948,34.351c0,11.05-3.043,19.857-9.129,26.423c-5.925,6.62-15.133,9.929-27.624,9.929
			c-11.05,0-19.137-2.908-24.261-8.728c-5.125-5.926-7.687-14.333-7.687-25.223c0-7.045,1.44-13.371,4.323-18.976
			c3.042-5.604,7.287-10.009,12.731-13.212C121.761,516.231,128.328,514.71,136.014,514.71z M120.4,550.502
			c0,6.406,0.961,10.81,2.883,13.212s5.445,3.604,10.569,3.604c3.844,0,7.366-0.48,10.569-1.442
			c1.762-4.004,2.642-9.288,2.642-15.853c0-6.406-1.04-10.81-3.122-13.212c-1.922-2.402-5.444-3.604-10.569-3.604
			c-3.683,0-7.206,0.4-10.569,1.201C121.201,538.412,120.4,543.776,120.4,550.502z M183.095,494.773h28.425l28.345,66.777
			l1.201-0.479l-1.681-66.298h21.378v89.438h-28.345l-28.425-66.859l-1.201,0.241l1.682,66.618h-21.379V494.773z M300.638,516.151
			v68.061h-21.379v-68.061H300.638z M288.628,462.745c12.649,14.626,12.649,28.744,0,42.356
			C276.137,491.489,276.137,477.371,288.628,462.745z"/>
	</g>
</g>
</svg>
